# xmcd
#
# Track frame offsets:
#	150
#	17315
#	33171
#	48980
#	57926
#	67583
#	82213
#	95199
#	103802
#	112721
#
# Disc length: 1801
#
# Revision: 1
# Processed by: cddbd v1.5.1PL0 Copyright (c) Steve Scherf et al.
# Submitted via: dBpowerAMP V4.0
# Normalized: r0:TRMNUM
#
DISCID=7307070a
DTITLE=Beastie Boys  - Root Down
DYEAR=2004
DGENRE=Acapella
TTITLE0=Root Down 5free Zone Mix
TTITLE1=Root Down 5lp
TTITLE2=Root Down 5pp Balloon Mix
TTITLE3=Time To Get Ill
TTITLE4=Heart Attack Man
TTITLE5=The Maestro
TTITLE6=Sabrosa
TTITLE7=Flute Loop
TTITLE8=Time For Livin'
TTITLE9=Something's Got To Give
EXTD=
EXTT0=
EXTT1=
EXTT2=
EXTT3=
EXTT4=
EXTT5=
EXTT6=
EXTT7=
EXTT8=
EXTT9=
PLAYORDER=
